<svg xmlns="http://www.w3.org/2000/svg" height="300.0" viewBox="-0.6096241284238936 -0.553303455834427 1.135748256847787 1.1496219783877402" width="296.37957820898396" xmlns:xlink="http://www.w3.org/1999/xlink"><g stroke-opacity="0.0" fill-opacity="5.0e-2" stroke="#000000" stroke-width="0.0" fill="#0d0d0d"><rect height="0.8928651148670972" width="0.9117513075498702" x="-0.42212717912597675" y="-0.5"/></g><g stroke-opacity="5.0e-2" stroke="#0d0d0d" stroke-width="5.0e-3" fill="none"><polyline points="-0.42212717912597675,0.39286511486709713
0.4896241284238935,0.39286511486709713"/></g><g stroke-opacity="5.0e-2" stroke="#0d0d0d" stroke-width="5.0e-3" fill="none"><polyline points="-0.42212717912597675,0.30357860338038745
0.4896241284238935,0.30357860338038745"/></g><g stroke-opacity="5.0e-2" stroke="#0d0d0d" stroke-width="5.0e-3" fill="none"><polyline points="-0.42212717912597675,0.21429209189367776
0.4896241284238935,0.21429209189367776"/></g><g stroke-opacity="5.0e-2" stroke="#0d0d0d" stroke-width="5.0e-3" fill="none"><polyline points="-0.42212717912597675,0.12500558040696796
0.4896241284238935,0.12500558040696796"/></g><g stroke-opacity="5.0e-2" stroke="#0d0d0d" stroke-width="5.0e-3" fill="none"><polyline points="-0.42212717912597675,3.571906892025828e-2
0.4896241284238935,3.571906892025828e-2"/></g><g stroke-opacity="5.0e-2" stroke="#0d0d0d" stroke-width="5.0e-3" fill="none"><polyline points="-0.42212717912597675,-5.3567442566451406e-2
0.4896241284238935,-5.3567442566451406e-2"/></g><g stroke-opacity="5.0e-2" stroke="#0d0d0d" stroke-width="5.0e-3" fill="none"><polyline points="-0.42212717912597675,-0.14285395405316115
0.4896241284238935,-0.14285395405316115"/></g><g stroke-opacity="5.0e-2" stroke="#0d0d0d" stroke-width="5.0e-3" fill="none"><polyline points="-0.42212717912597675,-0.2321404655398709
0.4896241284238935,-0.2321404655398709"/></g><g stroke-opacity="5.0e-2" stroke="#0d0d0d" stroke-width="5.0e-3" fill="none"><polyline points="-0.42212717912597675,-0.3214269770265805
0.4896241284238935,-0.3214269770265805"/></g><g stroke-opacity="5.0e-2" stroke="#0d0d0d" stroke-width="5.0e-3" fill="none"><polyline points="-0.42212717912597675,-0.41071348851329015
0.4896241284238935,-0.41071348851329015"/></g><g stroke-opacity="5.0e-2" stroke="#0d0d0d" stroke-width="5.0e-3" fill="none"><polyline points="-0.42212717912597675,-0.5
0.4896241284238935,-0.5"/></g><g fill-opacity="1.0" font-size="5.0e-2" stroke="none" stroke-width="0.0" fill="#0d0d0d" text-anchor="end"><text x="-0.4896241284238935" y="0.40581165903267">-1</text></g><g fill-opacity="1.0" font-size="5.0e-2" stroke="none" stroke-width="0.0" fill="#0d0d0d" text-anchor="end"><text x="-0.4896241284238935" y="0.3165251475459604">-0.8</text></g><g fill-opacity="1.0" font-size="5.0e-2" stroke="none" stroke-width="0.0" fill="#0d0d0d" text-anchor="end"><text x="-0.4896241284238935" y="0.2272386360592506">-0.6</text></g><g fill-opacity="1.0" font-size="5.0e-2" stroke="none" stroke-width="0.0" fill="#0d0d0d" text-anchor="end"><text x="-0.4896241284238935" y="0.1379521245725409">-0.4</text></g><g fill-opacity="1.0" font-size="5.0e-2" stroke="none" stroke-width="0.0" fill="#0d0d0d" text-anchor="end"><text x="-0.4896241284238935" y="4.866561308583117e-2">-0.2</text></g><g fill-opacity="1.0" font-size="5.0e-2" stroke="none" stroke-width="0.0" fill="#0d0d0d" text-anchor="end"><text x="-0.4896241284238935" y="-4.062089840087857e-2">0</text></g><g fill-opacity="1.0" font-size="5.0e-2" stroke="none" stroke-width="0.0" fill="#0d0d0d" text-anchor="end"><text x="-0.4896241284238935" y="-0.1299074098875883">0.2</text></g><g fill-opacity="1.0" font-size="5.0e-2" stroke="none" stroke-width="0.0" fill="#0d0d0d" text-anchor="end"><text x="-0.4896241284238935" y="-0.21919392137429783">0.4</text></g><g fill-opacity="1.0" font-size="5.0e-2" stroke="none" stroke-width="0.0" fill="#0d0d0d" text-anchor="end"><text x="-0.4896241284238935" y="-0.30848043286100757">0.6</text></g><g fill-opacity="1.0" font-size="5.0e-2" stroke="none" stroke-width="0.0" fill="#0d0d0d" text-anchor="end"><text x="-0.4896241284238935" y="-0.3977669443477173">0.8</text></g><g fill-opacity="1.0" font-size="5.0e-2" stroke="none" stroke-width="0.0" fill="#0d0d0d" text-anchor="end"><text x="-0.4896241284238935" y="-0.48705345583442694">1</text></g><g stroke-opacity="0.4" fill-opacity="0.4" stroke="#0d0d0d" stroke-width="2.0e-3" fill="#0d0d0d"><g transform="rotate(-90.0, -0.46133248535062105, 0.39286511486709713)"><polyline points="-0.46133248535062105,0.40786511486709714
-0.46133248535062105,0.3778651148670971"/></g><g transform="rotate(-90.0, -0.46133248535062105, 0.30357860338038745)"><polyline points="-0.46133248535062105,0.31857860338038746
-0.46133248535062105,0.28857860338038743"/></g><g transform="rotate(-90.0, -0.46133248535062105, 0.21429209189367776)"><polyline points="-0.46133248535062105,0.22929209189367777
-0.46133248535062105,0.19929209189367775"/></g><g transform="rotate(-90.0, -0.46133248535062105, 0.12500558040696796)"><polyline points="-0.46133248535062105,0.14000558040696798
-0.46133248535062105,0.11000558040696796"/></g><g transform="rotate(-90.0, -0.46133248535062105, 3.571906892025828e-2)"><polyline points="-0.46133248535062105,5.071906892025828e-2
-0.46133248535062105,2.071906892025828e-2"/></g><g transform="rotate(-90.0, -0.46133248535062105, -5.3567442566451406e-2)"><polyline points="-0.46133248535062105,-3.856744256645141e-2
-0.46133248535062105,-6.85674425664514e-2"/></g><g transform="rotate(-90.0, -0.46133248535062105, -0.14285395405316115)"><polyline points="-0.46133248535062105,-0.12785395405316113
-0.46133248535062105,-0.15785395405316116"/></g><g transform="rotate(-90.0, -0.46133248535062105, -0.2321404655398709)"><polyline points="-0.46133248535062105,-0.21714046553987087
-0.46133248535062105,-0.2471404655398709"/></g><g transform="rotate(-90.0, -0.46133248535062105, -0.3214269770265805)"><polyline points="-0.46133248535062105,-0.3064269770265805
-0.46133248535062105,-0.33642697702658053"/></g><g transform="rotate(-90.0, -0.46133248535062105, -0.41071348851329015)"><polyline points="-0.46133248535062105,-0.39571348851329013
-0.46133248535062105,-0.42571348851329016"/></g><g transform="rotate(-90.0, -0.46133248535062105, -0.5)"><polyline points="-0.46133248535062105,-0.485
-0.46133248535062105,-0.515"/></g></g><g stroke-opacity="0.0" fill-opacity="0.4" stroke="#000000" stroke-width="0.0" fill="#0d0d0d"><rect height="0.8928651148670972" width="3.647005230199507e-3" x="-0.4499355940062477" y="-0.5"/></g><g stroke-opacity="5.0e-2" stroke="#0d0d0d" stroke-width="5.0e-3" fill="none"><polyline points="-0.42212717912597675,0.39286511486709713
-0.42212717912597675,-0.5"/></g><g stroke-opacity="5.0e-2" stroke="#0d0d0d" stroke-width="5.0e-3" fill="none"><polyline points="-0.3309520483709897,0.39286511486709713
-0.3309520483709897,-0.5"/></g><g stroke-opacity="5.0e-2" stroke="#0d0d0d" stroke-width="5.0e-3" fill="none"><polyline points="-0.23977691761600267,0.39286511486709713
-0.23977691761600267,-0.5"/></g><g stroke-opacity="5.0e-2" stroke="#0d0d0d" stroke-width="5.0e-3" fill="none"><polyline points="-0.1486017868610156,0.39286511486709713
-0.1486017868610156,-0.5"/></g><g stroke-opacity="5.0e-2" stroke="#0d0d0d" stroke-width="5.0e-3" fill="none"><polyline points="-5.7426656106028706e-2,0.39286511486709713
-5.7426656106028706e-2,-0.5"/></g><g stroke-opacity="5.0e-2" stroke="#0d0d0d" stroke-width="5.0e-3" fill="none"><polyline points="3.3748474648958415e-2,0.39286511486709713
3.3748474648958415e-2,-0.5"/></g><g stroke-opacity="5.0e-2" stroke="#0d0d0d" stroke-width="5.0e-3" fill="none"><polyline points="0.12492360540394548,0.39286511486709713
0.12492360540394548,-0.5"/></g><g stroke-opacity="5.0e-2" stroke="#0d0d0d" stroke-width="5.0e-3" fill="none"><polyline points="0.21609873615893255,0.39286511486709713
0.21609873615893255,-0.5"/></g><g stroke-opacity="5.0e-2" stroke="#0d0d0d" stroke-width="5.0e-3" fill="none"><polyline points="0.3072738669139194,0.39286511486709713
0.3072738669139194,-0.5"/></g><g stroke-opacity="5.0e-2" stroke="#0d0d0d" stroke-width="5.0e-3" fill="none"><polyline points="0.39844899766890657,0.39286511486709713
0.39844899766890657,-0.5"/></g><g stroke-opacity="5.0e-2" stroke="#0d0d0d" stroke-width="5.0e-3" fill="none"><polyline points="0.4896241284238935,0.39286511486709713
0.4896241284238935,-0.5"/></g><g fill-opacity="1.0" font-size="4.2744827586206895e-2" stroke="none" stroke-width="0.0" fill="#0d0d0d" text-anchor="end"><text transform="rotate(-45.0, -0.42212717912597675, 0.5)" x="-0.42212717912597675" y="0.5">-1</text></g><g fill-opacity="1.0" font-size="4.2744827586206895e-2" stroke="none" stroke-width="0.0" fill="#0d0d0d" text-anchor="end"><text transform="rotate(-45.0, -0.3309520483709897, 0.5)" x="-0.3309520483709897" y="0.5">-0.8</text></g><g fill-opacity="1.0" font-size="4.2744827586206895e-2" stroke="none" stroke-width="0.0" fill="#0d0d0d" text-anchor="end"><text transform="rotate(-45.0, -0.23977691761600267, 0.5)" x="-0.23977691761600267" y="0.5">-0.6</text></g><g fill-opacity="1.0" font-size="4.2744827586206895e-2" stroke="none" stroke-width="0.0" fill="#0d0d0d" text-anchor="end"><text transform="rotate(-45.0, -0.1486017868610156, 0.5)" x="-0.1486017868610156" y="0.5">-0.4</text></g><g fill-opacity="1.0" font-size="4.2744827586206895e-2" stroke="none" stroke-width="0.0" fill="#0d0d0d" text-anchor="end"><text transform="rotate(-45.0, -5.7426656106028706e-2, 0.5)" x="-5.7426656106028706e-2" y="0.5">-0.2</text></g><g fill-opacity="1.0" font-size="4.2744827586206895e-2" stroke="none" stroke-width="0.0" fill="#0d0d0d" text-anchor="end"><text transform="rotate(-45.0, 3.3748474648958415e-2, 0.5)" x="3.3748474648958415e-2" y="0.5">0</text></g><g fill-opacity="1.0" font-size="4.2744827586206895e-2" stroke="none" stroke-width="0.0" fill="#0d0d0d" text-anchor="end"><text transform="rotate(-45.0, 0.12492360540394548, 0.5)" x="0.12492360540394548" y="0.5">0.2</text></g><g fill-opacity="1.0" font-size="4.2744827586206895e-2" stroke="none" stroke-width="0.0" fill="#0d0d0d" text-anchor="end"><text transform="rotate(-45.0, 0.21609873615893255, 0.5)" x="0.21609873615893255" y="0.5">0.4</text></g><g fill-opacity="1.0" font-size="4.2744827586206895e-2" stroke="none" stroke-width="0.0" fill="#0d0d0d" text-anchor="end"><text transform="rotate(-45.0, 0.3072738669139194, 0.5)" x="0.3072738669139194" y="0.5">0.6</text></g><g fill-opacity="1.0" font-size="4.2744827586206895e-2" stroke="none" stroke-width="0.0" fill="#0d0d0d" text-anchor="end"><text transform="rotate(-45.0, 0.39844899766890657, 0.5)" x="0.39844899766890657" y="0.5">0.8</text></g><g fill-opacity="1.0" font-size="4.2744827586206895e-2" stroke="none" stroke-width="0.0" fill="#0d0d0d" text-anchor="end"><text transform="rotate(-45.0, 0.4896241284238935, 0.5)" x="0.4896241284238935" y="0.5">1</text></g><g stroke-opacity="0.4" fill-opacity="0.4" stroke="#0d0d0d" stroke-width="2.0e-3" fill="#0d0d0d"><polyline points="-0.42212717912597675,0.44625831480638223
-0.42212717912597675,0.4162583148063822"/><polyline points="-0.3309520483709897,0.44625831480638223
-0.3309520483709897,0.4162583148063822"/><polyline points="-0.23977691761600267,0.44625831480638223
-0.23977691761600267,0.4162583148063822"/><polyline points="-0.1486017868610156,0.44625831480638223
-0.1486017868610156,0.4162583148063822"/><polyline points="-5.7426656106028706e-2,0.44625831480638223
-5.7426656106028706e-2,0.4162583148063822"/><polyline points="3.3748474648958415e-2,0.44625831480638223
3.3748474648958415e-2,0.4162583148063822"/><polyline points="0.12492360540394548,0.44625831480638223
0.12492360540394548,0.4162583148063822"/><polyline points="0.21609873615893255,0.44625831480638223
0.21609873615893255,0.4162583148063822"/><polyline points="0.3072738669139194,0.44625831480638223
0.3072738669139194,0.4162583148063822"/><polyline points="0.39844899766890657,0.44625831480638223
0.39844899766890657,0.4162583148063822"/><polyline points="0.4896241284238935,0.44625831480638223
0.4896241284238935,0.4162583148063822"/></g><g stroke-opacity="0.0" fill-opacity="0.4" stroke="#000000" stroke-width="0.0" fill="#0d0d0d"><rect height="3.5714604594683785e-3" width="0.9117513075498702" x="-0.42212717912597675" y="0.4165260404110751"/></g><g stroke-opacity="1.0" fill-opacity="1.0" stroke="#1f78b5" stroke-width="3.0e-3" fill="#a6cfe3"><rect height="3.0e-2" width="2.999999999999997e-2" x="0.4746241284238935" y="-6.85674425664514e-2"/><rect height="3.0e-2" width="2.999999999999997e-2" x="0.4737245619560562" y="-9.6599174782504e-2"/><rect height="3.0e-2" width="2.999999999999997e-2" x="0.47102941273042037" y="-0.12452027855797985"/><rect height="3.0000000000000013e-2" width="3.0000000000000027e-2" x="0.466549317269683" y="-0.15222056205221668"/><rect height="3.0000000000000027e-2" width="3.0000000000000027e-2" x="0.46030195646386646" y="-0.17959070490131812"/><rect height="3.0000000000000027e-2" width="3.0000000000000027e-2" x="0.45231198579192383" y="-0.20652268965568765"/><rect height="3.0000000000000027e-2" width="3.0000000000000027e-2" x="0.44261093801782664" y="-0.23291022807555317"/><rect height="3.0000000000000027e-2" width="3.0000000000000027e-2" x="0.43123709874515254" y="-0.2586491806020912"/><rect height="3.0000000000000027e-2" width="3.0000000000000027e-2" x="0.4182353553212977" y="-0.2836379673486884"/><rect height="3.0000000000000027e-2" width="3.0000000000000027e-2" x="0.4036570196876242" y="-0.3077779689903464"/><rect height="3.0000000000000027e-2" width="3.0000000000000027e-2" x="0.3875596258746706" y="-0.33097391596910375"/><rect height="3.0000000000000027e-2" width="3.0000000000000027e-2" x="0.37000670294161647" y="-0.35313426447945484"/><rect height="3.0000000000000027e-2" width="3.0000000000000027e-2" x="0.3510675242561114" y="-0.37417155774993005"/><rect height="3.0000000000000027e-2" width="3.0000000000000027e-2" x="0.330816834103939" y="-0.3940027711950157"/><rect height="3.0000000000000027e-2" width="3.0000000000000027e-2" x="0.30933455270746985" y="-0.4125496400752636"/><rect height="3.0000000000000027e-2" width="3.0000000000000027e-2" x="0.28670546081705467" y="-0.42973896837246195"/><rect height="3.0000000000000027e-2" width="3.0000000000000027e-2" x="0.26301886512013645" y="-0.4455029176608786"/><rect height="3.0000000000000027e-2" width="3.0000000000000027e-2" x="0.2383682457885548" y="-0.45977927483453573"/><rect height="3.0000000000000027e-2" width="3.0000000000000027e-2" x="0.21285088755501452" y="-0.4725116976339159"/><rect height="3.0000000000000027e-2" width="3.0000000000000027e-2" x="0.1865674957746914" y="-0.483649937003121"/><rect height="3.0000000000000027e-2" width="3.0000000000000027e-2" x="0.15962179898720302" y="-0.4931500353999382"/><rect height="3.0000000000000027e-2" width="3.0000000000000027e-2" x="0.13212013954745133" y="-0.5009745002761771"/><rect height="3.0000000000000027e-2" width="3.0000000000000013e-2" x="0.10417105394093236" y="-0.5070924520436293"/><rect height="3.0000000000000027e-2" width="3.0e-2" x="7.588484443981221e-2" y="-0.5114797459416947"/><rect height="3.0000000000000027e-2" width="3.0e-2" x="4.7373143790251884e-2" y="-0.5141190673257222"/><rect height="3.0000000000000027e-2" width="3.0e-2" x="1.8748474648958305e-2" y="-0.515"/><rect height="3.0000000000000027e-2" width="3.0e-2" x="-9.876194492335164e-3" y="-0.5141190673257222"/><rect height="3.0000000000000027e-2" width="3.0e-2" x="-3.838789514189554e-2" y="-0.5114797459416947"/><rect height="3.0000000000000027e-2" width="3.0e-2" x="-6.667410464301575e-2" y="-0.5070924520436291"/><rect height="3.0000000000000027e-2" width="3.0e-2" x="-9.462319024953462e-2" y="-0.5009745002761771"/><rect height="3.0000000000000027e-2" width="3.0e-2" x="-0.12212484968928632" y="-0.4931500353999382"/><rect height="3.0000000000000027e-2" width="3.0000000000000013e-2" x="-0.1490705464767747" y="-0.483649937003121"/><rect height="3.0000000000000027e-2" width="3.0000000000000027e-2" x="-0.17535393825709789" y="-0.4725116976339159"/><rect height="3.0000000000000027e-2" width="3.0000000000000027e-2" x="-0.20087129649063817" y="-0.45977927483453573"/><rect height="3.0000000000000027e-2" width="3.0000000000000027e-2" x="-0.22552191582221992" y="-0.44550291766087835"/><rect height="3.0000000000000027e-2" width="3.0000000000000027e-2" x="-0.24920851151913792" y="-0.42973896837246195"/><rect height="3.0000000000000027e-2" width="3.0000000000000027e-2" x="-0.27183760340955304" y="-0.4125496400752636"/><rect height="3.0000000000000027e-2" width="3.0000000000000027e-2" x="-0.29331988480602234" y="-0.3940027711950157"/><rect height="3.0000000000000027e-2" width="3.0000000000000027e-2" x="-0.31357057495819474" y="-0.37417155774993005"/><rect height="3.0000000000000027e-2" width="3.0000000000000027e-2" x="-0.33250975364369995" y="-0.35313426447945484"/><rect height="3.0000000000000027e-2" width="3.0000000000000027e-2" x="-0.3500626765767537" y="-0.33097391596910375"/><rect height="3.0000000000000027e-2" width="3.0000000000000027e-2" x="-0.36616007038970744" y="-0.3077779689903464"/><rect height="3.0000000000000027e-2" width="3.0000000000000027e-2" x="-0.3807384060233808" y="-0.2836379673486884"/><rect height="3.0000000000000027e-2" width="3.0000000000000027e-2" x="-0.39374014944723584" y="-0.2586491806020912"/><rect height="3.0000000000000027e-2" width="3.0000000000000027e-2" x="-0.40511398871990995" y="-0.23291022807555317"/><rect height="3.0000000000000027e-2" width="3.0000000000000027e-2" x="-0.414815036494007" y="-0.20652268965568743"/><rect height="3.0000000000000027e-2" width="3.0000000000000027e-2" x="-0.42280500716594965" y="-0.17959070490131812"/><rect height="3.0000000000000013e-2" width="3.0000000000000027e-2" x="-0.42905236797176616" y="-0.15222056205221668"/><rect height="3.0e-2" width="3.0000000000000027e-2" x="-0.4335324634325037" y="-0.12452027855797985"/><rect height="3.0e-2" width="3.0000000000000027e-2" x="-0.4362276126581396" y="-9.659917478250378e-2"/><rect height="3.0e-2" width="3.0000000000000027e-2" x="-0.43712717912597676" y="-6.85674425664513e-2"/><rect height="3.0e-2" width="3.0000000000000027e-2" x="-0.4362276126581396" y="-4.053571035039881e-2"/><rect height="3.0e-2" width="3.0000000000000027e-2" x="-0.4335324634325037" y="-1.2614606574922735e-2"/><rect height="3.0e-2" width="3.0000000000000027e-2" x="-0.4290523679717661" y="1.508567691931402e-2"/><rect height="3.0e-2" width="3.0000000000000027e-2" x="-0.42280500716594965" y="4.245581976841546e-2"/><rect height="3.0e-2" width="3.0000000000000027e-2" x="-0.41481503649400686" y="6.9387804522785e-2"/><rect height="3.0000000000000013e-2" width="3.0000000000000027e-2" x="-0.4051139887199099" y="9.577534294265062e-2"/><rect height="3.0000000000000013e-2" width="3.0000000000000027e-2" x="-0.39374014944723573" y="0.12151429546918847"/><rect height="3.0000000000000027e-2" width="3.0000000000000027e-2" x="-0.3807384060233807" y="0.14650308221578567"/><rect height="3.0000000000000027e-2" width="3.0000000000000027e-2" x="-0.36616007038970744" y="0.1706430838574438"/><rect height="3.0000000000000027e-2" width="3.0000000000000027e-2" x="-0.35006267657675366" y="0.19383903083620102"/><rect height="3.0000000000000027e-2" width="3.0000000000000027e-2" x="-0.3325097536436997" y="0.21599937934655228"/><rect height="3.0000000000000027e-2" width="3.0000000000000027e-2" x="-0.3135705749581947" y="0.23703667261702732"/><rect height="3.0000000000000027e-2" width="3.0000000000000027e-2" x="-0.2933198848060223" y="0.25686788606211297"/><rect height="3.0000000000000027e-2" width="3.0000000000000027e-2" x="-0.27183760340955304" y="0.2754147549423609"/><rect height="3.0000000000000027e-2" width="3.0000000000000027e-2" x="-0.24920851151913803" y="0.2926040832395591"/><rect height="3.0000000000000027e-2" width="3.0000000000000027e-2" x="-0.2255219158222197" y="0.30836803252797584"/><rect height="3.0000000000000027e-2" width="3.0000000000000027e-2" x="-0.20087129649063812" y="0.32264438970163295"/><rect height="3.0000000000000027e-2" width="3.0000000000000027e-2" x="-0.17535393825709766" y="0.33537681250101337"/><rect height="3.0000000000000027e-2" width="3.0000000000000013e-2" x="-0.1490705464767746" y="0.34651505187021825"/><rect height="3.0000000000000027e-2" width="3.0e-2" x="-0.12212484968928632" y="0.35601515026703523"/><rect height="3.0000000000000027e-2" width="3.0e-2" x="-9.462319024953446e-2" y="0.3638396151432741"/><rect height="3.0000000000000027e-2" width="3.0e-2" x="-6.667410464301564e-2" y="0.36995756691072634"/><rect height="3.0000000000000027e-2" width="3.0e-2" x="-3.8387895141895154e-2" y="0.374344860808792"/><rect height="3.0000000000000027e-2" width="3.0e-2" x="-9.876194492335164e-3" y="0.3769841821928195"/><rect height="3.0000000000000027e-2" width="3.0e-2" x="1.8748474648958305e-2" y="0.3778651148670971"/><rect height="3.0000000000000027e-2" width="3.0e-2" x="4.7373143790252106e-2" y="0.3769841821928195"/><rect height="3.0000000000000027e-2" width="3.0e-2" x="7.588484443981221e-2" y="0.374344860808792"/><rect height="3.0000000000000027e-2" width="3.0000000000000013e-2" x="0.10417105394093258" y="0.36995756691072634"/><rect height="3.0000000000000027e-2" width="3.0000000000000027e-2" x="0.13212013954745144" y="0.3638396151432741"/><rect height="3.0000000000000027e-2" width="3.0000000000000027e-2" x="0.1596217989872029" y="0.35601515026703534"/><rect height="3.0000000000000027e-2" width="3.0000000000000027e-2" x="0.18656749577469162" y="0.3465150518702182"/><rect height="3.0000000000000027e-2" width="3.0000000000000027e-2" x="0.21285088755501452" y="0.33537681250101326"/><rect height="3.0000000000000027e-2" width="3.0000000000000027e-2" x="0.23836824578855503" y="0.32264438970163284"/><rect height="3.0000000000000027e-2" width="3.0000000000000027e-2" x="0.26301886512013645" y="0.3083680325279758"/><rect height="3.0000000000000027e-2" width="3.0000000000000027e-2" x="0.286705460817055" y="0.2926040832395589"/><rect height="3.0000000000000027e-2" width="3.0000000000000027e-2" x="0.30933455270746996" y="0.27541475494236073"/><rect height="3.0000000000000027e-2" width="3.0000000000000027e-2" x="0.330816834103939" y="0.25686788606211297"/><rect height="3.0000000000000027e-2" width="3.0000000000000027e-2" x="0.3510675242561116" y="0.23703667261702716"/><rect height="3.0000000000000027e-2" width="3.0000000000000027e-2" x="0.3700067029416167" y="0.2159993793465521"/><rect height="3.0000000000000027e-2" width="3.0000000000000027e-2" x="0.3875596258746707" y="0.1938390308362007"/><rect height="3.0000000000000027e-2" width="3.0000000000000027e-2" x="0.4036570196876242" y="0.1706430838574436"/><rect height="3.0000000000000027e-2" width="3.0000000000000027e-2" x="0.4182353553212977" y="0.14650308221578562"/><rect height="3.0000000000000013e-2" width="3.0000000000000027e-2" x="0.43123709874515265" y="0.12151429546918836"/><rect height="3.0000000000000013e-2" width="3.0000000000000027e-2" x="0.44261093801782664" y="9.57753429426504e-2"/><rect height="3.0e-2" width="3.0000000000000027e-2" x="0.45231198579192383" y="6.938780452278455e-2"/><rect height="3.0e-2" width="3.0000000000000027e-2" x="0.46030195646386646" y="4.245581976841524e-2"/><rect height="3.0e-2" width="3.0000000000000027e-2" x="0.466549317269683" y="1.5085676919313909e-2"/><rect height="3.0e-2" width="2.999999999999997e-2" x="0.47102941273042037" y="-1.2614606574922957e-2"/><rect height="3.0e-2" width="2.999999999999997e-2" x="0.4737245619560562" y="-4.053571035039881e-2"/><rect height="3.0e-2" width="2.999999999999997e-2" x="0.4746241284238935" y="-6.856744256645163e-2"/></g><g></g></svg>